<?xml version="1.0" standalone="no"?>
<!DOCTYPE svg PUBLIC "-//W3C//DTD SVG 20010904//EN"
 "http://www.w3.org/TR/2001/REC-SVG-20010904/DTD/svg10.dtd">
<svg version="1.0" xmlns="http://www.w3.org/2000/svg"
 width="290.000000pt" height="208.000000pt" viewBox="0 0 290.000000 208.000000"
 preserveAspectRatio="xMidYMid meet">
<metadata>
Created by potrace 1.13, written by Peter Selinger 2001-2015
</metadata>
<g transform="translate(0.000000,208.000000) scale(0.100000,-0.100000)"
fill="#000000" stroke="none">
<path d="M422 1308 c3 -273 4 -296 24 -339 31 -66 78 -114 142 -146 77 -38
193 -40 264 -5 60 30 120 90 150 150 33 68 32 187 -1 256 -58 118 -186 192
-296 172 l-35 -7 0 -120 0 -120 22 15 c34 24 63 19 92 -15 34 -40 33 -74 -3
-110 -35 -34 -77 -38 -112 -10 l-24 19 -3 276 -3 276 -110 0 -110 0 3 -292z"/>
<path d="M1448 1324 l-3 -276 -24 -19 c-13 -10 -37 -19 -53 -19 -38 0 -88 48
-88 85 0 51 92 112 115 75 18 -29 25 0 25 104 0 109 -1 114 -22 120 -104 27
-244 -50 -306 -168 -36 -70 -38 -188 -4 -258 30 -60 90 -120 150 -150 71 -35
187 -33 264 5 64 32 111 80 142 146 20 43 21 66 24 339 l3 292 -110 0 -110 0
-3 -276z"/>
<path d="M1914 1382 c-78 -27 -128 -73 -166 -150 l-33 -67 -3 -292 -3 -293
110 0 111 0 0 265 c0 316 5 335 87 335 33 0 83 -51 83 -85 0 -32 -50 -85 -80
-85 -12 0 -30 5 -41 10 -18 10 -19 6 -19 -110 l0 -120 55 0 c113 0 219 70 276
180 33 64 33 185 1 252 -29 60 -90 120 -149 149 -63 30 -162 35 -229 11z"/>
</g>
</svg>
